PathFileType	4	(X/Y/Z)	C:\Users\86182\Documents\cortex\Trimmed_M3_L14.trc
DataRate	CameraRate	NumFrames	NumMarkers	Units	OrigDataRate	OrigDataStartFrame	OrigNumFrames
100.00	100.00	       126	2	mm	100.00	361	       901
Frame#	Time	gripper			box			
		X1	Y1	Z1	X2	Y2	Z2	

361	3.600	273.35391	149.85109	292.95557	275.21707	148.15167	157.37556	
362	3.610	273.39047	149.85307	292.95782	275.20898	148.14313	157.37323	
363	3.620	273.37302	149.84276	292.95538	275.21875	148.15858	157.39186	
364	3.630	273.39359	149.84842	292.97797	275.23108	148.15736	157.38055	
365	3.640	273.39877	149.85062	292.97995	275.23535	148.16251	157.38608	
366	3.650	273.38281	149.84746	292.95657	275.21832	148.13879	157.38084	
367	3.660	273.38217	149.84125	292.95157	275.19412	148.12068	157.37025	
368	3.670	273.37302	149.84276	292.95538	275.19284	148.10078	157.35641	
369	3.680	273.37302	149.84276	292.95538	275.11670	148.06313	157.33827	
370	3.690	273.37302	149.84276	292.95538	275.11102	148.09790	157.35165	
371	3.700	273.37302	149.84276	292.95538	275.18057	148.12616	157.36105	
372	3.710	273.40991	149.83667	292.94003	275.20154	148.10387	157.33807	
373	3.720	273.38281	149.84746	292.95657	275.28790	148.11699	157.36720	
374	3.730	273.37302	149.84276	292.95538	275.27933	148.11621	157.36102	
375	3.740	273.39447	149.83922	292.94644	275.14621	148.06248	157.32750	
376	3.750	273.43790	149.83206	292.92841	274.97092	147.99899	157.33629	
377	3.760	273.41388	149.80286	292.88974	274.86713	147.92926	157.30408	
378	3.770	273.46866	149.79173	292.87006	274.85950	147.91690	157.28423	
379	3.780	273.46213	149.79767	292.86551	274.79813	147.85483	157.26173	
380	3.790	273.40744	149.77199	292.83350	274.81934	147.81839	157.21426	
381	3.800	273.47513	149.79243	292.83670	274.82840	147.79544	157.20026	
382	3.810	273.48859	149.81117	292.82776	274.79639	147.84172	157.21159	
383	3.820	273.47922	149.80600	292.84171	274.73547	147.89238	157.25487	
384	3.830	273.45596	149.79869	292.86807	274.78723	147.91626	157.26965	
385	3.840	273.45270	149.79854	292.87048	274.81262	147.90793	157.30437	
386	3.850	273.46866	149.79173	292.87006	274.82159	147.89867	157.32028	
387	3.860	273.46866	149.79173	292.87006	274.85901	147.86122	157.31487	
388	3.870	273.47028	149.79182	292.86887	274.86447	147.85878	157.28439	
389	3.880	273.46866	149.79173	292.87006	274.90970	147.84837	157.26912	
390	3.890	273.46866	149.79173	292.87006	275.03894	147.79605	157.20036	
391	3.900	273.47516	149.79207	292.86526	275.00162	147.79053	157.17470	
392	3.910	273.50415	149.79228	292.84576	274.91782	147.81224	157.21411	
393	3.920	273.51324	149.79552	292.83487	274.94028	147.79944	157.16684	
394	3.930	273.45615	149.78154	292.84232	274.83286	147.83414	157.22147	
395	3.940	273.46689	149.80241	292.85526	274.86884	147.84325	157.22870	
396	3.950	273.46667	149.79491	292.86664	274.80945	147.85849	157.24319	
397	3.960	273.46866	149.79173	292.87006	274.79947	147.88034	157.30043	
398	3.970	273.46866	149.79173	292.87006	274.81015	147.88039	157.29732	
399	3.980	273.46866	149.79173	292.87006	274.81110	147.87569	157.30240	
400	3.990	273.46866	149.79173	292.87006	274.85251	147.86179	157.28929	
401	4.000	273.46182	149.79466	292.87024	274.81458	147.85530	157.26869	
402	4.010	273.45499	149.79756	292.87039	274.78244	147.86636	157.27209	
403	4.020	273.44180	149.80228	292.86740	274.79849	147.84772	157.23874	
404	4.030	273.46661	149.80028	292.85867	274.77322	147.85536	157.24283	
405	4.040	273.47006	149.80162	292.85434	274.80469	147.84488	157.23279	
406	4.050	273.46823	149.80035	292.85748	274.80756	147.83508	157.22644	
407	4.060	273.49576	149.79260	292.85080	274.88852	147.80537	157.20471	
408	4.070	273.47330	149.79146	292.86743	274.88055	147.81873	157.20955	
409	4.080	273.46866	149.79173	292.87006	274.90186	147.81859	157.21428	
410	4.090	273.46866	149.79173	292.87006	274.90741	147.82332	157.22906	
411	4.100	273.46866	149.79173	292.87006	274.89462	147.83087	157.23892	
412	4.110	273.46866	149.79173	292.87006	274.89716	147.81906	157.21219	
413	4.120	273.46866	149.79173	292.87006	274.92273	147.81172	157.18819	
414	4.130	273.49075	149.79184	292.85529	274.86987	147.81248	157.20480	
415	4.140	273.49774	149.79443	292.84677	274.97284	147.78734	157.15033	
416	4.150	273.51648	149.79323	292.83615	274.91086	147.81352	157.17906	
417	4.160	273.52994	149.79456	292.82526	274.87622	147.80795	157.20164	
418	4.170	273.46088	149.80057	292.86200	274.88071	147.80493	157.20192	
419	4.180	273.46149	149.79788	292.86563	274.87698	147.82414	157.20595	
420	4.190	273.46411	149.79369	292.87018	274.89178	147.81113	157.19495	
421	4.200	273.46411	149.79369	292.87018	274.85364	147.82019	157.21506	
422	4.210	273.46411	149.79369	292.87018	274.84518	147.83034	157.22104	
423	4.220	273.46866	149.79173	292.87006	274.84866	147.82919	157.21989	
424	4.230	273.47028	149.79182	292.86887	274.88055	147.81873	157.20955	
425	4.240	273.46802	149.79279	292.86893	274.87558	147.81541	157.20901	
426	4.250	273.47729	149.79649	292.85721	274.87006	147.80827	157.20555	
427	4.260	273.47916	149.79874	292.85263	274.94901	147.79173	157.16942	
428	4.270	273.53491	149.79648	292.81909	274.93024	147.77261	157.17381	
429	4.280	273.52029	149.79317	292.83371	275.01431	147.75726	157.13652	
430	4.290	273.49350	149.79274	292.85211	274.95883	147.78250	157.16164	
431	4.300	273.48691	149.79355	292.85529	274.99341	147.77007	157.14787	
432	4.310	273.46970	149.79536	292.86395	274.91898	147.79584	157.17809	
433	4.320	273.46866	149.79173	292.87006	274.93005	147.79472	157.16791	
434	4.330	273.47516	149.79207	292.86526	274.89240	147.80116	157.19052	
435	4.340	273.46762	149.79604	292.86432	274.87122	147.80305	157.20308	
436	4.350	273.46182	149.79466	292.87024	274.91547	147.80840	157.17781	
437	4.360	273.45511	149.80003	292.86664	274.86353	147.75549	157.17297	
438	4.370	273.46442	149.79587	292.86670	274.87067	147.74046	157.16499	
439	4.380	273.45993	149.79944	292.86432	274.89157	147.72791	157.13948	
440	4.390	273.46274	149.80325	292.85205	274.84286	147.74696	157.15746	
441	4.400	273.43561	149.80733	292.86862	274.90698	147.73050	157.14508	
442	4.410	273.44489	149.80754	292.86215	274.82562	147.73325	157.17024	
443	4.420	273.46082	149.79893	292.86450	274.90576	147.77348	157.15114	
444	4.430	273.47101	149.79160	292.86874	274.90823	147.79129	157.17799	
445	4.440	273.46866	149.79173	292.87006	274.92154	147.76860	157.15875	
446	4.450	273.47028	149.79182	292.86887	274.94247	147.76930	157.14075	
447	4.460	273.46796	149.79819	292.86087	274.93240	147.75552	157.15105	
448	4.470	273.45004	149.80544	292.86191	275.05066	147.73662	157.09766	
449	4.480	273.47797	149.79710	292.85587	274.96509	147.73836	157.13448	
450	4.490	273.44852	149.80261	292.86713	275.01416	147.74426	157.11436	
451	4.500	273.47299	149.80058	292.85394	274.98422	147.74696	157.12910	
452	4.510	273.46854	149.80411	292.85162	274.98209	147.74763	157.13281	
453	4.520	273.45886	149.80203	292.86115	274.94092	147.72833	157.13190	
454	4.530	273.45987	149.79781	292.86682	274.92743	147.73892	157.14975	
455	4.540	273.45532	149.79973	292.86694	274.97635	147.72560	157.12059	
456	4.550	273.44626	149.80357	292.86719	274.89517	147.72786	157.15399	
457	4.560	273.46573	149.79376	292.86899	274.92770	147.74675	157.14375	
458	4.570	273.45728	149.79660	292.87036	274.89908	147.76788	157.16658	
459	4.580	273.44409	149.80981	292.85928	274.89853	147.76387	157.17398	
460	4.590	273.46725	149.79924	292.85977	274.91907	147.71274	157.12416	
461	4.600	273.46878	149.80528	292.84970	274.94034	147.70778	157.10493	
462	4.610	273.45752	149.80411	292.85892	274.91022	147.70612	157.12265	
463	4.620	273.45816	149.80833	292.85217	274.91928	147.70798	157.11929	
464	4.630	273.45963	149.81029	292.84830	274.93973	147.70190	157.09697	
465	4.640	273.46753	149.80139	292.85638	274.94373	147.72353	157.12523	
466	4.650	273.44370	149.80321	292.86945	274.92505	147.70070	157.11343	
467	4.660	273.46564	149.79916	292.86096	274.96194	147.74092	157.13887	
468	4.670	273.46964	149.79286	292.86774	274.93997	147.72157	157.12494	
469	4.680	273.47195	149.79190	292.86768	274.98730	147.71153	157.10849	
470	4.690	273.47156	149.79514	292.86307	274.92114	147.70152	157.11520	
471	4.700	273.47934	149.79749	292.85437	274.90283	147.70229	157.12207	
472	4.710	273.48209	149.79837	292.85123	274.94373	147.72353	157.12523	
473	4.720	273.46017	149.80688	292.85303	275.00986	147.71339	157.08934	
474	4.730	273.49326	149.79552	292.84811	274.92960	147.72891	157.13121	
475	4.740	273.46307	149.79796	292.86444	274.92807	147.70680	157.11453	
476	4.750	273.47781	149.80080	292.85043	274.92065	147.70294	157.11397	
477	4.760	273.43848	149.80534	292.86969	274.90436	147.71568	157.13605	
478	4.770	273.47568	149.79642	292.85840	274.89084	147.71533	157.13939	
479	4.780	273.44662	149.80571	292.86374	274.84659	147.73137	157.15781	
480	4.790	273.47943	149.80571	292.84201	274.86481	147.70569	157.14461	
481	4.800	273.45047	149.80484	292.86252	274.87524	147.70474	157.13841	
482	4.810	273.49304	149.79514	292.84885	274.89352	147.71213	157.13751	
483	4.820	273.48007	149.80066	292.84915	274.93311	147.72218	157.12901	
484	4.830	273.48050	149.79666	292.85486	274.86130	147.70599	157.14668	
485	4.840	273.48117	149.79561	292.85596	274.91077	147.71059	157.12729	
486	4.850	273.51874	149.79686	292.82919	274.91928	147.70798	157.11929	
